<mxfile host="app.diagrams.net" modified="2021-12-01T10:13:43.890Z" agent="5.0 (Windows NT 10.0; Win64; x64) AppleWebKit/537.36 (KHTML, like Gecko) Chrome/96.0.4664.55 Safari/537.36 Edg/96.0.1054.34" etag="0QlopGCEApRrPScEbUQ6" version="15.8.7" type="github">
  <diagram id="prtHgNgQTEPvFCAcTncT" name="Page-1">
    <mxGraphModel dx="920" dy="551" grid="1" gridSize="10" guides="1" tooltips="1" connect="1" arrows="1" fold="1" page="1" pageScale="1" pageWidth="827" pageHeight="1169" background="#F1FAEE" math="0" shadow="0">
      <root>
        <mxCell id="0" />
        <mxCell id="1" parent="0" />
        <mxCell id="dNxyNK7c78bLwvsdeMH5-19" value="视频问诊" style="swimlane;html=1;childLayout=stackLayout;resizeParent=1;resizeParentMax=0;horizontal=0;startSize=20;horizontalStack=0;fillColor=#A8DADC;strokeColor=#457B9D;fontColor=#1D3557;align=center;" parent="1" vertex="1">
          <mxGeometry x="120" y="120" width="2480" height="410" as="geometry" />
        </mxCell>
        <mxCell id="dNxyNK7c78bLwvsdeMH5-20" value="患者端（腾讯健康小程序）" style="swimlane;html=1;startSize=20;horizontal=0;fillColor=#A8DADC;strokeColor=#457B9D;fontColor=#1D3557;align=right;" parent="dNxyNK7c78bLwvsdeMH5-19" vertex="1">
          <mxGeometry x="20" width="2460" height="140" as="geometry" />
        </mxCell>
        <mxCell id="eHdf7R_SHur1p_ty0o2o-7" value="" style="edgeStyle=orthogonalEdgeStyle;curved=0;rounded=1;sketch=0;orthogonalLoop=1;jettySize=auto;html=1;fontColor=#1D3557;strokeColor=#457B9D;fillColor=#A8DADC;" edge="1" parent="dNxyNK7c78bLwvsdeMH5-20" source="dNxyNK7c78bLwvsdeMH5-23" target="eHdf7R_SHur1p_ty0o2o-6">
          <mxGeometry relative="1" as="geometry" />
        </mxCell>
        <mxCell id="dNxyNK7c78bLwvsdeMH5-23" value="开始" style="ellipse;whiteSpace=wrap;html=1;fillColor=#A8DADC;strokeColor=#457B9D;fontColor=#1D3557;" parent="dNxyNK7c78bLwvsdeMH5-20" vertex="1">
          <mxGeometry x="30" y="40" width="40" height="40" as="geometry" />
        </mxCell>
        <mxCell id="eHdf7R_SHur1p_ty0o2o-6" value="选择视频问诊的医生H" style="whiteSpace=wrap;html=1;fontColor=#1D3557;strokeColor=#457B9D;fillColor=#A8DADC;" vertex="1" parent="dNxyNK7c78bLwvsdeMH5-20">
          <mxGeometry x="100" y="30" width="120" height="60" as="geometry" />
        </mxCell>
        <mxCell id="eHdf7R_SHur1p_ty0o2o-17" value="" style="edgeStyle=orthogonalEdgeStyle;curved=0;rounded=1;sketch=0;orthogonalLoop=1;jettySize=auto;html=1;fontColor=#1D3557;strokeColor=#457B9D;fillColor=#A8DADC;" edge="1" parent="dNxyNK7c78bLwvsdeMH5-20" source="eHdf7R_SHur1p_ty0o2o-14" target="eHdf7R_SHur1p_ty0o2o-16">
          <mxGeometry relative="1" as="geometry" />
        </mxCell>
        <mxCell id="eHdf7R_SHur1p_ty0o2o-14" value="&lt;div style=&quot;text-align: justify&quot;&gt;&lt;span&gt;病情信息描述&lt;br&gt;&lt;ol&gt;&lt;li&gt;&lt;span&gt;选择就诊人A&lt;/span&gt;&lt;/li&gt;&lt;li&gt;&lt;span&gt;填写病情描述&lt;/span&gt;&lt;/li&gt;&lt;li&gt;&lt;span&gt;既往史/过敏史&lt;/span&gt;&lt;/li&gt;&lt;li&gt;&lt;span&gt;过往检查资料&lt;/span&gt;&lt;/li&gt;&lt;/ol&gt;&lt;/span&gt;&lt;/div&gt;" style="whiteSpace=wrap;html=1;fontColor=#1D3557;strokeColor=#457B9D;fillColor=#A8DADC;align=center;" vertex="1" parent="dNxyNK7c78bLwvsdeMH5-20">
          <mxGeometry x="500" y="10" width="130" height="100" as="geometry" />
        </mxCell>
        <mxCell id="eHdf7R_SHur1p_ty0o2o-16" value="拉起支付并成功支付" style="whiteSpace=wrap;html=1;fontColor=#1D3557;strokeColor=#457B9D;fillColor=#A8DADC;" vertex="1" parent="dNxyNK7c78bLwvsdeMH5-20">
          <mxGeometry x="715" y="30" width="120" height="60" as="geometry" />
        </mxCell>
        <mxCell id="eHdf7R_SHur1p_ty0o2o-18" value="进入在线诊室&lt;br&gt;&lt;ol&gt;&lt;li&gt;等待接诊，获取排队进度&lt;/li&gt;&lt;li&gt;补充资料&lt;/li&gt;&lt;li&gt;联系客服&lt;/li&gt;&lt;li&gt;取消问诊（&lt;font color=&quot;#ff3333&quot;&gt;退出逻辑&lt;/font&gt;）&lt;/li&gt;&lt;/ol&gt;" style="whiteSpace=wrap;html=1;fontColor=#1D3557;strokeColor=#457B9D;fillColor=#A8DADC;align=left;" vertex="1" parent="dNxyNK7c78bLwvsdeMH5-20">
          <mxGeometry x="930" y="10" width="180" height="100" as="geometry" />
        </mxCell>
        <mxCell id="eHdf7R_SHur1p_ty0o2o-19" value="" style="edgeStyle=orthogonalEdgeStyle;curved=0;rounded=1;sketch=0;orthogonalLoop=1;jettySize=auto;html=1;fontColor=#1D3557;strokeColor=#457B9D;fillColor=#A8DADC;" edge="1" parent="dNxyNK7c78bLwvsdeMH5-20" source="eHdf7R_SHur1p_ty0o2o-16" target="eHdf7R_SHur1p_ty0o2o-18">
          <mxGeometry relative="1" as="geometry" />
        </mxCell>
        <mxCell id="eHdf7R_SHur1p_ty0o2o-34" value="收到提醒进入候诊室" style="whiteSpace=wrap;html=1;fontColor=#1D3557;strokeColor=#457B9D;fillColor=#A8DADC;" vertex="1" parent="dNxyNK7c78bLwvsdeMH5-20">
          <mxGeometry x="1157.5" y="30" width="120" height="60" as="geometry" />
        </mxCell>
        <mxCell id="eHdf7R_SHur1p_ty0o2o-56" value="&lt;span&gt;查看问诊结论&lt;br&gt;&lt;ol&gt;&lt;li style=&quot;&quot;&gt;&lt;span&gt;问诊病历查看/下载&lt;/span&gt;&lt;/li&gt;&lt;li style=&quot;&quot;&gt;&lt;span&gt;评价&lt;/span&gt;&lt;/li&gt;&lt;li style=&quot;&quot;&gt;&lt;span&gt;申诉&lt;/span&gt;&lt;/li&gt;&lt;li style=&quot;&quot;&gt;&lt;span&gt;引导线下挂号&lt;/span&gt;&lt;/li&gt;&lt;li style=&quot;&quot;&gt;&lt;span&gt;观看问诊回放&lt;/span&gt;&lt;/li&gt;&lt;/ol&gt;&lt;/span&gt;" style="whiteSpace=wrap;html=1;rounded=0;fontColor=#000000;strokeColor=#457B9D;fillColor=#A8DADC;sketch=0;align=left;" vertex="1" parent="dNxyNK7c78bLwvsdeMH5-20">
          <mxGeometry x="2181" y="15" width="160" height="110" as="geometry" />
        </mxCell>
        <mxCell id="dNxyNK7c78bLwvsdeMH5-21" value="服务平台" style="swimlane;html=1;startSize=20;horizontal=0;fillColor=#A8DADC;strokeColor=#457B9D;fontColor=#1D3557;" parent="dNxyNK7c78bLwvsdeMH5-19" vertex="1">
          <mxGeometry x="20" y="140" width="2460" height="120" as="geometry" />
        </mxCell>
        <mxCell id="eHdf7R_SHur1p_ty0o2o-22" value="将就诊人A加入医生H在该时段的排班表中，并向医生发送接诊通知并更新订单状态（已接诊）" style="whiteSpace=wrap;html=1;fontColor=#1D3557;strokeColor=#457B9D;fillColor=#A8DADC;" vertex="1" parent="dNxyNK7c78bLwvsdeMH5-21">
          <mxGeometry x="677.5" y="35" width="195" height="60" as="geometry" />
        </mxCell>
        <mxCell id="eHdf7R_SHur1p_ty0o2o-33" value="即将到达就诊人A就诊时段，发送上线提醒" style="whiteSpace=wrap;html=1;fontColor=#1D3557;strokeColor=#457B9D;fillColor=#A8DADC;" vertex="1" parent="dNxyNK7c78bLwvsdeMH5-21">
          <mxGeometry x="1145" y="35" width="145" height="60" as="geometry" />
        </mxCell>
        <mxCell id="eHdf7R_SHur1p_ty0o2o-38" value="更新医生H状态（问诊中）展示给所有候诊人" style="whiteSpace=wrap;html=1;fontColor=#1D3557;strokeColor=#457B9D;fillColor=#A8DADC;" vertex="1" parent="dNxyNK7c78bLwvsdeMH5-21">
          <mxGeometry x="1341" y="35" width="120" height="60" as="geometry" />
        </mxCell>
        <mxCell id="eHdf7R_SHur1p_ty0o2o-45" value="结束视频通话&lt;br&gt;&lt;ol&gt;&lt;li&gt;将医生状态改为诊断中（仅针对患者A），提醒患者A等待&lt;/li&gt;&lt;li&gt;提醒医生填写诊断信息，完善病历&lt;/li&gt;&lt;li&gt;通知下一位候诊人B准备&lt;/li&gt;&lt;/ol&gt;" style="rounded=0;whiteSpace=wrap;html=1;sketch=0;fontColor=#000000;strokeColor=#457B9D;fillColor=#A8DADC;align=left;" vertex="1" parent="dNxyNK7c78bLwvsdeMH5-21">
          <mxGeometry x="1760" y="15" width="230" height="85" as="geometry" />
        </mxCell>
        <mxCell id="eHdf7R_SHur1p_ty0o2o-23" style="edgeStyle=orthogonalEdgeStyle;curved=0;rounded=1;sketch=0;orthogonalLoop=1;jettySize=auto;html=1;exitX=0.5;exitY=1;exitDx=0;exitDy=0;fontColor=#FF3333;strokeColor=#457B9D;fillColor=#A8DADC;" edge="1" parent="dNxyNK7c78bLwvsdeMH5-19" source="eHdf7R_SHur1p_ty0o2o-16" target="eHdf7R_SHur1p_ty0o2o-22">
          <mxGeometry relative="1" as="geometry" />
        </mxCell>
        <mxCell id="eHdf7R_SHur1p_ty0o2o-26" style="edgeStyle=orthogonalEdgeStyle;curved=0;rounded=1;sketch=0;orthogonalLoop=1;jettySize=auto;html=1;exitX=0.5;exitY=1;exitDx=0;exitDy=0;fontColor=#FF3333;strokeColor=#457B9D;fillColor=#A8DADC;" edge="1" parent="dNxyNK7c78bLwvsdeMH5-19" source="eHdf7R_SHur1p_ty0o2o-22" target="eHdf7R_SHur1p_ty0o2o-24">
          <mxGeometry relative="1" as="geometry" />
        </mxCell>
        <mxCell id="dNxyNK7c78bLwvsdeMH5-22" value="医生端（企业微信小程序）" style="swimlane;html=1;startSize=20;horizontal=0;fillColor=#A8DADC;strokeColor=#457B9D;fontColor=#1D3557;" parent="dNxyNK7c78bLwvsdeMH5-19" vertex="1">
          <mxGeometry x="20" y="260" width="2460" height="150" as="geometry" />
        </mxCell>
        <mxCell id="eHdf7R_SHur1p_ty0o2o-1" value="开始" style="ellipse;whiteSpace=wrap;html=1;fillColor=#A8DADC;strokeColor=#457B9D;fontColor=#1D3557;" vertex="1" parent="dNxyNK7c78bLwvsdeMH5-22">
          <mxGeometry x="30" y="55" width="40" height="40" as="geometry" />
        </mxCell>
        <mxCell id="eHdf7R_SHur1p_ty0o2o-5" value="" style="edgeStyle=orthogonalEdgeStyle;curved=0;rounded=1;sketch=0;orthogonalLoop=1;jettySize=auto;html=1;fontColor=#1D3557;strokeColor=#457B9D;fillColor=#A8DADC;" edge="1" parent="dNxyNK7c78bLwvsdeMH5-22" source="eHdf7R_SHur1p_ty0o2o-2" target="eHdf7R_SHur1p_ty0o2o-4">
          <mxGeometry relative="1" as="geometry" />
        </mxCell>
        <mxCell id="eHdf7R_SHur1p_ty0o2o-2" value="入驻" style="whiteSpace=wrap;html=1;fontColor=#1D3557;strokeColor=#457B9D;fillColor=#A8DADC;" vertex="1" parent="dNxyNK7c78bLwvsdeMH5-22">
          <mxGeometry x="100" y="45" width="120" height="60" as="geometry" />
        </mxCell>
        <mxCell id="eHdf7R_SHur1p_ty0o2o-3" value="" style="edgeStyle=orthogonalEdgeStyle;curved=0;rounded=1;sketch=0;orthogonalLoop=1;jettySize=auto;html=1;fontColor=#1D3557;strokeColor=#457B9D;fillColor=#A8DADC;" edge="1" parent="dNxyNK7c78bLwvsdeMH5-22" source="eHdf7R_SHur1p_ty0o2o-1" target="eHdf7R_SHur1p_ty0o2o-2">
          <mxGeometry relative="1" as="geometry" />
        </mxCell>
        <mxCell id="eHdf7R_SHur1p_ty0o2o-4" value="创建排班表" style="whiteSpace=wrap;html=1;fontColor=#1D3557;strokeColor=#457B9D;fillColor=#A8DADC;" vertex="1" parent="dNxyNK7c78bLwvsdeMH5-22">
          <mxGeometry x="100" y="-95" width="120" height="60" as="geometry" />
        </mxCell>
        <mxCell id="eHdf7R_SHur1p_ty0o2o-29" value="" style="edgeStyle=orthogonalEdgeStyle;curved=0;rounded=1;sketch=0;orthogonalLoop=1;jettySize=auto;html=1;fontColor=#FF3333;strokeColor=#457B9D;fillColor=#A8DADC;" edge="1" parent="dNxyNK7c78bLwvsdeMH5-22" source="eHdf7R_SHur1p_ty0o2o-24" target="eHdf7R_SHur1p_ty0o2o-28">
          <mxGeometry relative="1" as="geometry" />
        </mxCell>
        <mxCell id="eHdf7R_SHur1p_ty0o2o-24" value="接到就诊人A的问诊请求" style="whiteSpace=wrap;html=1;fontColor=#1D3557;strokeColor=#457B9D;fillColor=#A8DADC;" vertex="1" parent="dNxyNK7c78bLwvsdeMH5-22">
          <mxGeometry x="702" y="45" width="146" height="60" as="geometry" />
        </mxCell>
        <mxCell id="eHdf7R_SHur1p_ty0o2o-28" value="医生安排班时间上线（状态为：侯诊中）" style="whiteSpace=wrap;html=1;fontColor=#1D3557;strokeColor=#457B9D;fillColor=#A8DADC;" vertex="1" parent="dNxyNK7c78bLwvsdeMH5-22">
          <mxGeometry x="941" y="45" width="120" height="60" as="geometry" />
        </mxCell>
        <mxCell id="eHdf7R_SHur1p_ty0o2o-51" value="" style="edgeStyle=orthogonalEdgeStyle;curved=0;rounded=1;sketch=0;orthogonalLoop=1;jettySize=auto;html=1;fontColor=#000000;strokeColor=#457B9D;fillColor=#A8DADC;" edge="1" parent="dNxyNK7c78bLwvsdeMH5-22" source="eHdf7R_SHur1p_ty0o2o-49" target="eHdf7R_SHur1p_ty0o2o-50">
          <mxGeometry relative="1" as="geometry" />
        </mxCell>
        <mxCell id="eHdf7R_SHur1p_ty0o2o-49" value="完成问诊人A的病历填写" style="rounded=0;whiteSpace=wrap;html=1;sketch=0;fontColor=#000000;strokeColor=#457B9D;fillColor=#A8DADC;" vertex="1" parent="dNxyNK7c78bLwvsdeMH5-22">
          <mxGeometry x="1815" y="55" width="120" height="60" as="geometry" />
        </mxCell>
        <mxCell id="eHdf7R_SHur1p_ty0o2o-55" value="" style="edgeStyle=orthogonalEdgeStyle;curved=0;rounded=1;sketch=0;orthogonalLoop=1;jettySize=auto;html=1;fontColor=#000000;strokeColor=#457B9D;fillColor=#A8DADC;" edge="1" parent="dNxyNK7c78bLwvsdeMH5-22" source="eHdf7R_SHur1p_ty0o2o-50" target="eHdf7R_SHur1p_ty0o2o-54">
          <mxGeometry relative="1" as="geometry" />
        </mxCell>
        <mxCell id="eHdf7R_SHur1p_ty0o2o-50" value="结束就诊人A的问诊" style="whiteSpace=wrap;html=1;rounded=0;fontColor=#000000;strokeColor=#457B9D;fillColor=#A8DADC;sketch=0;" vertex="1" parent="dNxyNK7c78bLwvsdeMH5-22">
          <mxGeometry x="2015" y="55" width="120" height="60" as="geometry" />
        </mxCell>
        <mxCell id="eHdf7R_SHur1p_ty0o2o-54" value="&lt;span&gt;并开始就诊人B的问诊&lt;/span&gt;" style="whiteSpace=wrap;html=1;rounded=0;fontColor=#000000;strokeColor=#457B9D;fillColor=#A8DADC;sketch=0;" vertex="1" parent="dNxyNK7c78bLwvsdeMH5-22">
          <mxGeometry x="2310" y="55" width="120" height="60" as="geometry" />
        </mxCell>
        <mxCell id="eHdf7R_SHur1p_ty0o2o-35" value="" style="edgeStyle=orthogonalEdgeStyle;curved=0;rounded=1;sketch=0;orthogonalLoop=1;jettySize=auto;html=1;fontColor=#FF3333;strokeColor=#457B9D;fillColor=#A8DADC;" edge="1" parent="dNxyNK7c78bLwvsdeMH5-19" source="eHdf7R_SHur1p_ty0o2o-33" target="eHdf7R_SHur1p_ty0o2o-34">
          <mxGeometry relative="1" as="geometry" />
        </mxCell>
        <mxCell id="eHdf7R_SHur1p_ty0o2o-57" style="edgeStyle=orthogonalEdgeStyle;curved=0;rounded=1;sketch=0;orthogonalLoop=1;jettySize=auto;html=1;exitX=1;exitY=0.5;exitDx=0;exitDy=0;entryX=0.5;entryY=1;entryDx=0;entryDy=0;fontColor=#000000;strokeColor=#457B9D;fillColor=#A8DADC;" edge="1" parent="dNxyNK7c78bLwvsdeMH5-19" source="eHdf7R_SHur1p_ty0o2o-50" target="eHdf7R_SHur1p_ty0o2o-56">
          <mxGeometry relative="1" as="geometry" />
        </mxCell>
        <mxCell id="eHdf7R_SHur1p_ty0o2o-15" value="" style="edgeStyle=orthogonalEdgeStyle;curved=0;rounded=1;sketch=0;orthogonalLoop=1;jettySize=auto;html=1;fontColor=#1D3557;strokeColor=#457B9D;fillColor=#A8DADC;" edge="1" parent="1" source="eHdf7R_SHur1p_ty0o2o-8" target="eHdf7R_SHur1p_ty0o2o-14">
          <mxGeometry relative="1" as="geometry" />
        </mxCell>
        <mxCell id="eHdf7R_SHur1p_ty0o2o-30" value="默认有号" style="edgeLabel;html=1;align=center;verticalAlign=middle;resizable=0;points=[];fontColor=#FF3333;" vertex="1" connectable="0" parent="eHdf7R_SHur1p_ty0o2o-15">
          <mxGeometry x="-0.3313" y="-1" relative="1" as="geometry">
            <mxPoint x="13" y="-1" as="offset" />
          </mxGeometry>
        </mxCell>
        <mxCell id="eHdf7R_SHur1p_ty0o2o-8" value="选择问诊时段" style="whiteSpace=wrap;html=1;fontColor=#1D3557;strokeColor=#457B9D;fillColor=#A8DADC;" vertex="1" parent="1">
          <mxGeometry x="440" y="150" width="120" height="60" as="geometry" />
        </mxCell>
        <mxCell id="eHdf7R_SHur1p_ty0o2o-9" value="" style="edgeStyle=orthogonalEdgeStyle;curved=0;rounded=1;sketch=0;orthogonalLoop=1;jettySize=auto;html=1;fontColor=#1D3557;strokeColor=#457B9D;fillColor=#A8DADC;" edge="1" parent="1" source="eHdf7R_SHur1p_ty0o2o-6" target="eHdf7R_SHur1p_ty0o2o-8">
          <mxGeometry relative="1" as="geometry" />
        </mxCell>
        <mxCell id="eHdf7R_SHur1p_ty0o2o-10" style="edgeStyle=orthogonalEdgeStyle;curved=0;rounded=1;sketch=0;orthogonalLoop=1;jettySize=auto;html=1;entryX=0.5;entryY=1;entryDx=0;entryDy=0;fontColor=#1D3557;strokeColor=#457B9D;fillColor=#A8DADC;" edge="1" parent="1" source="eHdf7R_SHur1p_ty0o2o-4" target="eHdf7R_SHur1p_ty0o2o-8">
          <mxGeometry relative="1" as="geometry" />
        </mxCell>
        <mxCell id="eHdf7R_SHur1p_ty0o2o-11" value="透传" style="edgeLabel;html=1;align=center;verticalAlign=middle;resizable=0;points=[];fontColor=#1D3557;" vertex="1" connectable="0" parent="eHdf7R_SHur1p_ty0o2o-10">
          <mxGeometry x="-0.015" y="-1" relative="1" as="geometry">
            <mxPoint as="offset" />
          </mxGeometry>
        </mxCell>
        <mxCell id="eHdf7R_SHur1p_ty0o2o-37" value="" style="edgeStyle=orthogonalEdgeStyle;curved=0;rounded=1;sketch=0;orthogonalLoop=1;jettySize=auto;html=1;fontColor=#FF3333;strokeColor=#457B9D;fillColor=#A8DADC;" edge="1" parent="1" source="eHdf7R_SHur1p_ty0o2o-31" target="eHdf7R_SHur1p_ty0o2o-36">
          <mxGeometry relative="1" as="geometry" />
        </mxCell>
        <mxCell id="eHdf7R_SHur1p_ty0o2o-31" value="查看就诊人A信息" style="whiteSpace=wrap;html=1;fontColor=#1D3557;strokeColor=#457B9D;fillColor=#A8DADC;" vertex="1" parent="1">
          <mxGeometry x="1281" y="425" width="120" height="60" as="geometry" />
        </mxCell>
        <mxCell id="eHdf7R_SHur1p_ty0o2o-32" value="" style="edgeStyle=orthogonalEdgeStyle;curved=0;rounded=1;sketch=0;orthogonalLoop=1;jettySize=auto;html=1;fontColor=#FF3333;strokeColor=#457B9D;fillColor=#A8DADC;" edge="1" parent="1" source="eHdf7R_SHur1p_ty0o2o-28" target="eHdf7R_SHur1p_ty0o2o-31">
          <mxGeometry relative="1" as="geometry" />
        </mxCell>
        <mxCell id="eHdf7R_SHur1p_ty0o2o-39" value="" style="edgeStyle=orthogonalEdgeStyle;curved=0;rounded=1;sketch=0;orthogonalLoop=1;jettySize=auto;html=1;fontColor=#FF3333;strokeColor=#457B9D;fillColor=#A8DADC;" edge="1" parent="1" source="eHdf7R_SHur1p_ty0o2o-36" target="eHdf7R_SHur1p_ty0o2o-38">
          <mxGeometry relative="1" as="geometry" />
        </mxCell>
        <mxCell id="eHdf7R_SHur1p_ty0o2o-36" value="发起视频通话" style="whiteSpace=wrap;html=1;fontColor=#1D3557;strokeColor=#457B9D;fillColor=#A8DADC;" vertex="1" parent="1">
          <mxGeometry x="1481" y="425" width="120" height="60" as="geometry" />
        </mxCell>
        <mxCell id="eHdf7R_SHur1p_ty0o2o-44" style="edgeStyle=orthogonalEdgeStyle;curved=0;rounded=1;sketch=0;orthogonalLoop=1;jettySize=auto;html=1;exitX=1;exitY=0.5;exitDx=0;exitDy=0;entryX=0;entryY=0.75;entryDx=0;entryDy=0;fontColor=#000000;strokeColor=#457B9D;fillColor=#A8DADC;" edge="1" parent="1" source="eHdf7R_SHur1p_ty0o2o-40" target="eHdf7R_SHur1p_ty0o2o-43">
          <mxGeometry relative="1" as="geometry" />
        </mxCell>
        <mxCell id="eHdf7R_SHur1p_ty0o2o-40" value="接受视频请求" style="whiteSpace=wrap;html=1;fontColor=#1D3557;strokeColor=#457B9D;fillColor=#A8DADC;" vertex="1" parent="1">
          <mxGeometry x="1481" y="158" width="120" height="60" as="geometry" />
        </mxCell>
        <mxCell id="eHdf7R_SHur1p_ty0o2o-41" value="" style="edgeStyle=orthogonalEdgeStyle;curved=0;rounded=1;sketch=0;orthogonalLoop=1;jettySize=auto;html=1;fontColor=#FF3333;strokeColor=#457B9D;fillColor=#A8DADC;" edge="1" parent="1" source="eHdf7R_SHur1p_ty0o2o-38" target="eHdf7R_SHur1p_ty0o2o-40">
          <mxGeometry relative="1" as="geometry" />
        </mxCell>
        <mxCell id="eHdf7R_SHur1p_ty0o2o-47" style="edgeStyle=orthogonalEdgeStyle;curved=0;rounded=1;sketch=0;orthogonalLoop=1;jettySize=auto;html=1;exitX=1;exitY=0.75;exitDx=0;exitDy=0;entryX=0.5;entryY=1;entryDx=0;entryDy=0;fontColor=#000000;strokeColor=#457B9D;fillColor=#A8DADC;" edge="1" parent="1" source="eHdf7R_SHur1p_ty0o2o-42" target="eHdf7R_SHur1p_ty0o2o-45">
          <mxGeometry relative="1" as="geometry" />
        </mxCell>
        <mxCell id="eHdf7R_SHur1p_ty0o2o-48" style="edgeStyle=orthogonalEdgeStyle;curved=0;rounded=1;sketch=0;orthogonalLoop=1;jettySize=auto;html=1;exitX=1;exitY=0.25;exitDx=0;exitDy=0;entryX=0.5;entryY=0;entryDx=0;entryDy=0;fontColor=#000000;strokeColor=#457B9D;fillColor=#A8DADC;" edge="1" parent="1" source="eHdf7R_SHur1p_ty0o2o-42" target="eHdf7R_SHur1p_ty0o2o-45">
          <mxGeometry relative="1" as="geometry">
            <Array as="points">
              <mxPoint x="2015" y="231" />
            </Array>
          </mxGeometry>
        </mxCell>
        <mxCell id="eHdf7R_SHur1p_ty0o2o-42" value="视频信令保持&lt;br&gt;异常中断情况处理&lt;br&gt;&lt;ol&gt;&lt;li style=&quot;text-align: justify&quot;&gt;网络中断，提醒医生回拨&lt;/li&gt;&lt;li style=&quot;text-align: justify&quot;&gt;误触挂断，患者发起申诉，医生进行处理&lt;/li&gt;&lt;/ol&gt;" style="whiteSpace=wrap;html=1;fontColor=#1D3557;strokeColor=#457B9D;fillColor=#A8DADC;" vertex="1" parent="1">
          <mxGeometry x="1648" y="143" width="200" height="350" as="geometry" />
        </mxCell>
        <mxCell id="eHdf7R_SHur1p_ty0o2o-43" value="&lt;font color=&quot;#000000&quot;&gt;开始视频流&lt;/font&gt;" style="rounded=0;whiteSpace=wrap;html=1;sketch=0;fontColor=#FF3333;strokeColor=#457B9D;fillColor=#A8DADC;" vertex="1" parent="1">
          <mxGeometry x="1648" y="143" width="200" height="60" as="geometry" />
        </mxCell>
        <mxCell id="eHdf7R_SHur1p_ty0o2o-52" value="平台将医生H的状态改为候诊中，展示给候诊室的候诊人" style="whiteSpace=wrap;html=1;rounded=0;fontColor=#000000;strokeColor=#457B9D;fillColor=#A8DADC;sketch=0;" vertex="1" parent="1">
          <mxGeometry x="2155" y="295" width="120" height="60" as="geometry" />
        </mxCell>
        <mxCell id="eHdf7R_SHur1p_ty0o2o-53" value="" style="edgeStyle=orthogonalEdgeStyle;curved=0;rounded=1;sketch=0;orthogonalLoop=1;jettySize=auto;html=1;fontColor=#000000;strokeColor=#457B9D;fillColor=#A8DADC;" edge="1" parent="1" source="eHdf7R_SHur1p_ty0o2o-50" target="eHdf7R_SHur1p_ty0o2o-52">
          <mxGeometry relative="1" as="geometry" />
        </mxCell>
      </root>
    </mxGraphModel>
  </diagram>
</mxfile>
